<svg width="194" height="388" viewBox="0 0 194 388" fill="none" xmlns="http://www.w3.org/2000/svg">
<path d="M0 0L14.4565 121.322L74.2406 14.7674L41.1685 132.387L137.179 56.8213L61.6131 152.831L179.233 119.759L72.6776 179.544L194 194L72.6776 208.456L179.233 268.241L61.6131 235.169L137.179 331.179L41.1685 255.613L74.2406 373.233L14.4565 266.678L0 388L-14.4565 266.678L-74.2406 373.233L-41.1685 255.613L-137.179 331.179L-61.6131 235.169L-179.233 268.241L-72.6776 208.456L-194 194L-72.6776 179.544L-179.233 119.759L-61.6131 152.831L-137.179 56.8213L-41.1685 132.387L-74.2406 14.7674L-14.4565 121.322L0 0Z" fill="#E47220"/>
</svg>
